:SAMPLES-PER-SECOND 30
:FULLY-SPECIFIED
:DEGREES
16
root  -89.955 15.4245 -3.39891 20.42 80.8188 41.7345
RightUpLeg  -20.0852 4.58524 -16.4969
RightLeg  147.862 3.72504 5.49618
RightFoot  -50.0394 2.23291 6.68314
RightToes  5.82075e-010 -1.59028e-015 9.93923e-017
Spine  61.0939 -0.266802 4.02218
Spine1  12.606 2.96405 -12.364
HEad  -35.2371 -1.90042 0.296644
LeftShoulder1  9.93923e-017 0 1.22299e-017
LeftArm  -12.0267 -54.2406 -66.5071
LeftForeArm  -128.83 -49.8458 167.086
LeftHand  0.179692 4.02663 13.5616
RightShoulder  1.98785e-016 -4.96962e-017 1.55301e-017
RightArm  -2.39212 48.1999 68.3553
RightForeArm  -89.9806 46.6004 -153.822
RightHand  3.73347 -15.7673 -26.0689
LeftUpLeg  -85.4248 0.53099 -4.57807
LeftLeg  114.44 -17.6917 7.2666
LeftFoot  -10.0322 -0.029739 0.188254
LeftToes  1.8463e-010 2.29954e-012 -3.51709e-011
17
root  -89.4 16.4092 -3.55492 18.1532 81.4525 36.9985
RightUpLeg  -23.2083 4.99484 -16.0192
RightLeg  144.539 2.4853 6.89265
RightFoot  -44.635 2.12715 7.5411
RightToes  5.82075e-010 -1.59028e-015 9.93923e-017
Spine  61.8825 -0.338161 3.76169
Spine1  12.0894 3.38007 -12.2833
HEad  -35.2661 -2.69031 0.730232
LeftShoulder1  9.93923e-017 0 1.22299e-017
LeftArm  -11.4983 -54.5688 -66.7616
LeftForeArm  -129.216 -50.1055 166.907
LeftHand  0.207467 4.14731 13.7267
RightShoulder  1.98785e-016 -4.96962e-017 1.55301e-017
RightArm  -3.42693 49.1527 67.1011
RightForeArm  -90.1335 46.5791 -153.861
RightHand  3.82546 -15.9332 -26.4466
LeftUpLeg  -84.106 -0.990043 -4.00945
LeftLeg  113.256 -17.9116 8.16964
LeftFoot  -12.136 -0.0314997 -0.784897
LeftToes  1.8463e-010 2.29954e-012 -3.51709e-011
18
root  -88.7406 17.4728 -3.68239 10.5423 82.7827 27.2189
RightUpLeg  -24.6241 4.89608 -14.5005
RightLeg  140.488 1.03647 8.93418
RightFoot  -39.9548 2.01663 8.43904
RightToes  5.82075e-010 -1.59028e-015 9.93923e-017
Spine  62.4122 -0.635382 4.12242
Spine1  11.2634 3.70236 -11.8824
HEad  -34.8437 -3.32306 1.25286
LeftShoulder1  9.93923e-017 0 1.22299e-017
LeftArm  -10.1129 -54.6395 -67.3583
LeftForeArm  -130.339 -50.0557 167.03
LeftHand  0.444754 5.00528 13.2323
RightShoulder  1.98785e-016 -4.96962e-017 1.55301e-017
RightArm  -4.13352 49.602 66.3614
RightForeArm  -90.199 46.4575 -154.03
RightHand  3.95592 -16.1864 -26.8932
LeftUpLeg  -82.1808 -1.7305 -3.15691
LeftLeg  112.004 -17.8861 8.66471
LeftFoot  -14.6851 -0.0507239 -0.87955
LeftToes  1.8463e-010 2.29954e-012 -3.51709e-011
19
root  -87.9385 18.5144 -3.80198 -9.86803 83.9173 4.73055
RightUpLeg  -26.1373 4.74994 -11.9848
RightLeg  136.349 -0.4151 11.4549
RightFoot  -31.5533 1.48243 9.11351
RightToes  5.82075e-010 -1.59028e-015 9.93923e-017
Spine  62.3989 -1.07876 5.14129
Spine1  10.1395 4.02815 -11.2114
HEad  -34.4231 -3.53983 2.15286
LeftShoulder1  9.93923e-017 0 1.22299e-017
LeftArm  -9.28511 -54.5775 -67.5733
LeftForeArm  -131.481 -49.7341 167.371
LeftHand  0.582337 5.4753 12.3086
RightShoulder  1.98785e-016 -4.96962e-017 1.55301e-017
RightArm  -4.63791 49.4391 66.3249
RightForeArm  -90.1844 46.2939 -154.249
RightHand  4.1269 -16.5232 -27.4302
LeftUpLeg  -80.3833 -1.81341 -1.51106
LeftLeg  111.058 -17.7499 8.82413
LeftFoot  -16.5717 -0.0604389 -0.460492
LeftToes  1.8463e-010 2.29954e-012 -3.51709e-011
20
root  -87.2259 19.428 -3.87372 -32.4218 84.0983 -19.288
RightUpLeg  -29.3188 4.94679 -9.81179
RightLeg  133.489 -1.61779 13.6992
RightFoot  -18.2156 0.433795 9.63919
RightToes  5.82075e-010 -1.59028e-015 9.93923e-017
Spine  62.6478 -1.04388 5.50285
Spine1  9.14768 4.31427 -10.3849
HEad  -34.1742 -3.44472 3.2812
LeftShoulder1  9.93923e-017 0 1.22299e-017
LeftArm  -8.75412 -54.7157 -67.3742
LeftForeArm  -131.669 -49.7202 167.395
LeftHand  0.656955 5.72584 11.4499
RightShoulder  1.98785e-016 -4.96962e-017 1.55301e-017
RightArm  -5.22745 48.9541 66.5649
RightForeArm  -91.2678 45.9561 -154.77
RightHand  3.7106 -15.9216 -25.2611
LeftUpLeg  -78.8715 -2.41033 0.539473
LeftLeg  110.432 -17.6211 8.84664
LeftFoot  -16.9467 -0.0867781 -1.17248
LeftToes  1.8463e-010 2.29954e-012 -3.51709e-011
21
root  -86.6317 20.1513 -3.8877 -47.9411 83.8627 -35.5002
RightUpLeg  -33.636 5.08936 -8.67253
RightLeg  132.495 -2.17354 14.6869
RightFoot  -7.40064 -0.544116 10.7131
RightToes  5.82075e-010 -1.59028e-015 9.93923e-017
Spine  63.2135 -0.456172 4.85411
Spine1  8.41326 4.49534 -9.64505
HEad  -33.9515 -3.11375 4.18875
LeftShoulder1  9.93923e-017 0 1.22299e-017
LeftArm  -8.65532 -55.0687 -66.7365
LeftForeArm  -131.377 -50.0551 167.109
LeftHand  0.691455 5.8429 10.98
RightShoulder  1.98785e-016 -4.96962e-017 1.55301e-017
RightArm  -5.02052 48.2496 67.175
RightForeArm  -91.1046 45.8981 -154.835
RightHand  4.23017 -16.793 -27.4521
LeftUpLeg  -77.5323 -3.37796 2.35372
LeftLeg  110.31 -17.3867 8.38638
LeftFoot  -16.0262 -0.111478 -2.89088
LeftToes  1.8463e-010 2.29954e-012 -3.51709e-011
22
root  -85.9793 20.8015 -3.94069 -58.7024 83.1507 -46.3707
RightUpLeg  -38.2655 4.68535 -7.77634
RightLeg  132.239 -1.5419 14.181
RightFoot  -4.85918 -0.78577 11.0131
RightToes  5.82075e-010 -1.59028e-015 9.93923e-017
Spine  63.7116 -0.0448692 4.35329
Spine1  7.8782 4.62685 -8.87087
HEad  -33.5192 -2.4108 4.60174
LeftShoulder1  9.93923e-017 0 1.22299e-017
LeftArm  -8.94255 -55.296 -65.9303
LeftForeArm  -131.408 -50.33 166.89
LeftHand  0.715867 5.93909 10.8668
RightShoulder  1.98785e-016 -4.96962e-017 1.55301e-017
RightArm  -4.48239 47.2655 67.8779
RightForeArm  -91.4097 45.8203 -154.957
RightHand  4.44515 -17.097 -28.5045
LeftUpLeg  -75.6095 -4.02269 4.05951
LeftLeg  110.502 -17.0185 7.48193
LeftFoot  -14.967 -0.107124 -4.77898
LeftToes  1.8463e-010 2.29954e-012 -3.51709e-011
23
root  -85.193 21.4138 -4.09239 -65.9865 81.6853 -53.3603
RightUpLeg  -43.1237 3.58544 -5.97687
RightLeg  131.035 0.488226 12.585
RightFoot  -8.92015 -0.348155 9.46462
RightToes  5.82075e-010 -1.59028e-015 9.93923e-017
Spine  63.8338 -0.224069 4.66042
Spine1  7.89252 4.74197 -8.03552
HEad  -32.7612 -1.21139 4.60001
LeftShoulder1  9.93923e-017 0 1.22299e-017
LeftArm  -9.41106 -55.2038 -65.1223
LeftForeArm  -132.061 -50.2805 166.979
LeftHand  0.767497 6.15387 10.8583
RightShoulder  1.98785e-016 -4.96962e-017 1.55301e-017
RightArm  -3.53275 46.0602 68.9282
RightForeArm  -92.1085 45.7217 -155.132
RightHand  4.45921 -17.1412 -28.478
LeftUpLeg  -72.8859 -4.13746 5.85671
LeftLeg  110.951 -16.7108 6.61617
LeftFoot  -14.791 -0.120538 -6.44561
LeftToes  1.8463e-010 2.29954e-012 -3.51709e-011
24
root  -84.3333 21.8476 -4.28464 -70.2114 80.0459 -56.9154
RightUpLeg  -48.367 1.81488 -3.17939
RightLeg  128.471 3.58878 9.98077
RightFoot  -14.8574 0.109023 7.28664
RightToes  5.82075e-010 -1.59028e-015 9.93923e-017
Spine  63.4182 -0.77614 5.20435
Spine1  8.82739 4.69837 -7.41696
HEad  -31.7849 0.341662 4.4768
LeftShoulder1  9.93923e-017 0 1.22299e-017
LeftArm  -9.95787 -54.9343 -64.2113
LeftForeArm  -133.003 -50.0338 167.248
LeftHand  0.820008 6.37263 10.8596
RightShoulder  1.98785e-016 -4.96962e-017 1.55301e-017
RightArm  -2.48353 44.859 70.1727
RightForeArm  -92.5109 45.6824 -155.21
RightHand  4.44075 -17.164 -28.2284
LeftUpLeg  -69.9121 -4.08734 7.43968
LeftLeg  111.981 -16.603 5.99583
LeftFoot  -15.4542 -0.18654 -7.91757
LeftToes  1.8463e-010 2.29954e-012 -3.51709e-011
